HIERARCHY
ROOT joint_0
{
	OFFSET 0.000000 0.000000 0.000000
	CHANNELS 6 Xposition Yposition Zposition Zrotation Yrotation Xrotation 
	JOINT joint_1
	{
		OFFSET 17.107422 0.519409 105.452026
		CHANNELS 3 Zrotation Yrotation Xrotation
		JOINT joint_2
		{
			OFFSET 6.110352 -1.434082 97.381958
			CHANNELS 3 Zrotation Yrotation Xrotation
			JOINT joint_3
			{
				OFFSET 6.305908 -1.739990 97.255005
				CHANNELS 3 Zrotation Yrotation Xrotation
				JOINT joint_4
				{
					OFFSET 22.074707 -0.492493 131.077026
					CHANNELS 3 Zrotation Yrotation Xrotation
					JOINT joint_5
					{
						OFFSET 34.162842 2.248718 78.700928
						CHANNELS 3 Zrotation Yrotation Xrotation
						End Site
						{
							OFFSET 0.000000 0.000000 0.000000
						}
					}
				}
				JOINT joint_6
				{
					OFFSET 17.059082 -28.836914 72.664062
					CHANNELS 3 Zrotation Yrotation Xrotation
					JOINT joint_7
					{
						OFFSET 22.639893 -134.803833 -24.691040
						CHANNELS 3 Zrotation Yrotation Xrotation
						JOINT joint_8
						{
							OFFSET 7.301758 -32.590759 -269.966064
							CHANNELS 3 Zrotation Yrotation Xrotation
							JOINT joint_9
							{
								OFFSET 35.581055 -8.517151 -242.326965
								CHANNELS 3 Zrotation Yrotation Xrotation
								End Site
								{
									OFFSET 0.000000 0.000000 0.000000
								}
							}
						}
					}
				}
				JOINT joint_10
				{
					OFFSET 7.819092 28.232056 74.432983
					CHANNELS 3 Zrotation Yrotation Xrotation
					JOINT joint_11
					{
						OFFSET -23.457031 135.063843 -22.406982
						CHANNELS 3 Zrotation Yrotation Xrotation
						JOINT joint_12
						{
							OFFSET 17.896973 48.138672 -267.131958
							CHANNELS 3 Zrotation Yrotation Xrotation
							JOINT joint_13
							{
								OFFSET 46.526367 17.567627 -239.975037
								CHANNELS 3 Zrotation Yrotation Xrotation
								End Site
								{
									OFFSET 0.000000 0.000000 0.000000
								}
							}
						}
					}
				}
			}
		}
	}
	JOINT joint_14
	{
		OFFSET 10.553467 -100.140320 -126.306030
		CHANNELS 3 Zrotation Yrotation Xrotation
		JOINT joint_15
		{
			OFFSET -52.094238 -9.565002 -436.052002
			CHANNELS 3 Zrotation Yrotation Xrotation
			JOINT joint_16
			{
				OFFSET -55.682617 -11.310120 -462.482971
				CHANNELS 3 Zrotation Yrotation Xrotation
				JOINT joint_17
				{
					OFFSET 179.119385 -5.942566 -84.087004
					CHANNELS 3 Zrotation Yrotation Xrotation
					End Site
					{
						OFFSET 0.000000 0.000000 0.000000
					}
				}
			}
		}
	}
	JOINT joint_18
	{
		OFFSET -22.235352 101.620483 -123.583984
		CHANNELS 3 Zrotation Yrotation Xrotation
		JOINT joint_19
		{
			OFFSET -38.118408 12.306396 -437.429016
			CHANNELS 3 Zrotation Yrotation Xrotation
			JOINT joint_20
			{
				OFFSET -51.789307 8.010498 -463.006004
				CHANNELS 3 Zrotation Yrotation Xrotation
				JOINT joint_21
				{
					OFFSET 170.088135 59.632324 -83.078003
					CHANNELS 3 Zrotation Yrotation Xrotation
					End Site
					{
						OFFSET 0.000000 0.000000 0.000000
					}
				}
			}
		}
	}
}
MOTION
Frames: 18
Frame Time: 0.016667
-3435.717285 986.789673 1125.016968 -3.645860 -4.927703 -0.448425 -0.111694 2.997358 0.414980 -0.154529 -0.641128 -0.150116 -0.144990 0.686633 0.036109 0.162164 0.014581 -0.373549 0.000000 0.000000 0.000000 -2.019814 1.787788 0.324555 -0.321201 1.542924 0.737882 -0.042520 -1.103642 -0.596514 0.000000 0.000000 0.000000 0.231604 2.879863 -0.288063 0.573630 2.724580 -1.522782 0.231965 -0.158509 1.247771 0.000000 0.000000 0.000000 0.606049 -2.469373 -0.829281 0.534318 4.137902 -1.450557 0.373369 1.968159 0.238438 0.000000 0.000000 0.000000 1.386878 2.002240 2.509333 1.550388 0.988593 0.207733 1.603749 2.316526 -0.034358 0.000000 0.000000 0.000000 
-3433.886475 987.290894 1125.021973 -3.561769 -4.759543 -0.479315 -0.083764 3.199023 0.507465 -0.124131 -0.677942 -0.178344 -0.116585 0.726115 0.057244 0.165428 -0.284263 -0.361650 0.000000 0.000000 0.000000 -2.313448 1.849589 0.342104 -0.298854 1.505428 0.510167 -0.010179 -1.145130 -0.386402 0.000000 0.000000 0.000000 0.260831 2.859945 -0.467609 0.583092 2.761647 -1.355390 0.204382 -0.240771 1.138002 0.000000 0.000000 0.000000 0.547327 -2.499305 -0.852225 0.469493 4.077482 -1.418443 0.319147 1.780452 0.207110 0.000000 0.000000 0.000000 1.400027 1.846299 2.561190 1.583257 1.131313 0.144192 1.615918 2.132672 0.036192 0.000000 0.000000 0.000000 
-3431.587891 987.781311 1125.057007 -3.445690 -4.450763 -0.512888 0.002624 3.612670 0.570540 -0.044538 -0.777438 -0.199074 -0.037138 0.816489 0.082297 0.150994 -0.783241 -0.296176 0.000000 0.000000 0.000000 -2.887767 1.894977 0.244306 -0.253918 1.417622 0.294448 0.055351 -1.301896 0.013581 0.000000 0.000000 0.000000 0.071416 2.839768 -0.535697 0.587036 2.804163 -1.246996 0.143975 -0.459782 0.911350 0.000000 0.000000 0.000000 0.479075 -2.661227 -0.934732 0.375406 4.058533 -1.314070 0.250318 1.445952 0.164130 0.000000 0.000000 0.000000 1.377703 1.550558 2.613794 1.586698 1.303787 0.073578 1.593647 1.850814 0.124457 0.000000 0.000000 0.000000 
-3428.909424 988.266235 1125.125977 -3.304248 -4.033285 -0.546302 0.133276 4.202176 0.620086 0.072530 -0.910775 -0.216853 0.080319 0.920958 0.111036 0.124467 -1.442393 -0.192869 0.000000 0.000000 0.000000 -3.705347 1.929406 0.070189 -0.188760 1.282401 0.069012 0.148794 -1.541941 0.567492 0.000000 0.000000 0.000000 -0.275026 2.818852 -0.542422 0.588610 2.858337 -1.152274 0.055507 -0.787754 0.580705 0.000000 0.000000 0.000000 0.398552 -2.927817 -1.064896 0.253120 4.079263 -1.151897 0.165419 0.989206 0.109614 0.000000 0.000000 0.000000 1.330895 1.147283 2.668723 1.570709 1.501370 -0.005738 1.547452 1.490767 0.228542 0.000000 0.000000 0.000000 
-3425.065186 989.020630 1125.182007 -3.113317 -3.489086 -0.606443 0.290968 4.777314 0.677818 0.218330 -1.041512 -0.229102 0.226799 1.020281 0.140763 0.096832 -2.284322 -0.075377 0.000000 0.000000 0.000000 -4.502079 2.037397 -0.210140 -0.126583 1.248026 -0.132449 0.255371 -1.827405 1.182886 0.000000 0.000000 0.000000 -0.623782 2.857317 -0.377570 0.576275 2.891966 -1.331100 -0.010159 -1.089732 0.355427 0.000000 0.000000 0.000000 0.338407 -3.170846 -1.213363 0.148894 3.949440 -0.956267 0.100784 0.474340 0.062561 0.000000 0.000000 0.000000 1.266239 0.614291 2.735086 1.545035 1.794508 -0.093264 1.484858 1.040867 0.356233 0.000000 0.000000 0.000000 
-3419.430664 990.315002 1125.225952 -2.839343 -2.742441 -0.721156 0.473008 5.250367 0.737385 0.392665 -1.174387 -0.219675 0.404525 1.132111 0.159257 0.070832 -3.439880 0.058761 0.000000 0.000000 0.000000 -5.176431 2.284324 -0.605254 -0.074628 1.399921 -0.322390 0.376405 -2.182541 1.861729 0.000000 0.000000 0.000000 -0.824071 3.014586 0.145965 0.523684 2.837167 -2.158613 -0.005332 -1.258601 0.440882 0.000000 0.000000 0.000000 0.325804 -3.333144 -1.373811 0.095128 3.480862 -0.714596 0.083763 -0.046012 0.037433 0.000000 0.000000 0.000000 1.182430 -0.119672 2.814309 1.508843 2.206107 -0.170187 1.407420 0.513443 0.503986 0.000000 0.000000 0.000000 
-3412.303467 992.046204 1125.279053 -2.493186 -1.797605 -0.871487 0.682662 5.688012 0.787072 0.595933 -1.301532 -0.190442 0.613400 1.235583 0.165482 0.045293 -4.902398 0.209593 0.000000 0.000000 0.000000 -5.836176 2.650268 -1.070749 -0.019307 1.683580 -0.539870 0.518214 -2.622802 2.636176 0.000000 0.000000 0.000000 -0.892739 3.269475 0.953406 0.435924 2.718545 -3.485065 0.049194 -1.345691 0.748580 0.000000 0.000000 0.000000 0.346349 -3.462244 -1.561855 0.072964 2.738369 -0.422239 0.096795 -0.573338 0.026061 0.000000 0.000000 0.000000 1.077651 -1.047327 2.895355 1.457535 2.706017 -0.233616 1.313066 -0.067839 0.662372 0.000000 0.000000 0.000000 
-3404.150635 993.806213 1125.182007 -2.158166 -0.937353 -0.996901 0.880897 5.937603 0.887979 0.801237 -1.327028 -0.176140 0.819537 1.223405 0.183954 0.053363 -6.149840 0.263251 0.000000 0.000000 0.000000 -6.162352 3.116567 -1.602239 0.009590 2.163859 -0.664406 0.622355 -2.960628 3.204370 0.000000 0.000000 0.000000 -1.029972 3.517454 1.469570 0.389166 2.756365 -4.284929 0.079646 -1.433058 0.933404 0.000000 0.000000 0.000000 0.369853 -3.433263 -1.724778 0.070637 1.994166 -0.217766 0.117517 -1.122155 0.017600 0.000000 0.000000 0.000000 0.975691 -1.919142 2.983793 1.417862 3.403366 -0.356611 1.215007 -0.757545 0.856780 0.000000 0.000000 0.000000 
-3395.176758 995.329346 1124.812988 -1.889545 -0.381365 -1.080323 1.043408 5.845424 1.129577 0.996315 -1.216049 -0.202112 1.006644 1.079555 0.234768 0.125253 -6.822378 0.124646 0.000000 0.000000 0.000000 -5.840004 3.679348 -2.243414 -0.013381 2.927112 -0.566686 0.639115 -2.997244 3.334689 0.000000 0.000000 0.000000 -1.520325 3.659502 1.236080 0.443170 3.111235 -3.791199 0.038008 -1.528196 0.756834 0.000000 0.000000 0.000000 0.379900 -3.092430 -1.796003 0.091427 1.380116 -0.209368 0.141143 -1.740761 0.008246 0.000000 0.000000 0.000000 0.868174 -2.551459 3.120072 1.388602 4.431465 -0.600746 1.099127 -1.636494 1.108655 0.000000 0.000000 0.000000 
-3385.211914 996.771790 1124.233032 -1.657597 -0.023938 -1.147636 1.186957 5.479556 1.485793 1.189487 -1.032882 -0.249328 1.186815 0.877742 0.305250 0.251671 -7.129272 -0.173206 0.000000 0.000000 0.000000 -4.989018 4.346492 -2.968773 -0.066852 3.944982 -0.284161 0.596891 -2.790259 3.169274 0.000000 0.000000 0.000000 -2.300082 3.725313 0.460562 0.571876 3.697668 -2.384264 -0.047869 -1.605688 0.349232 0.000000 0.000000 0.000000 0.386981 -2.486884 -1.791438 0.140012 0.793536 -0.346549 0.175804 -2.409922 0.002456 0.000000 0.000000 0.000000 0.744302 -3.035351 3.303880 1.357044 5.744171 -0.936091 0.960057 -2.655824 1.398333 0.000000 0.000000 0.000000 
-3374.650879 998.110168 1123.522949 -1.428007 0.268961 -1.147654 1.309036 5.104365 1.731551 1.349840 -0.877520 -0.265920 1.338256 0.713149 0.352079 0.384466 -7.225184 -0.502889 0.000000 0.000000 0.000000 -3.985092 5.016546 -3.617567 -0.129339 4.999425 0.090169 0.547244 -2.668363 2.916862 0.000000 0.000000 0.000000 -2.923553 3.809476 -0.289099 0.721536 4.307759 -0.799420 -0.163305 -1.863191 -0.142899 0.000000 0.000000 0.000000 0.377546 -1.921691 -1.818864 0.166987 0.458136 -0.522990 0.189216 -3.010131 -0.010950 0.000000 0.000000 0.000000 0.700041 -3.449913 3.415027 1.400077 7.080408 -1.302913 0.895367 -3.603409 1.698910 0.000000 0.000000 0.000000 
-3363.750488 999.349854 1122.688965 -1.204881 0.579544 -1.023124 1.424175 4.896631 1.677583 1.473815 -0.818585 -0.208737 1.465025 0.651308 0.340972 0.488189 -7.173486 -0.768610 0.000000 0.000000 0.000000 -3.036250 5.626019 -4.125113 -0.208262 5.975269 0.543369 0.509466 -2.908558 2.639098 0.000000 0.000000 0.000000 -3.084449 4.003444 -0.601221 0.866792 4.826426 0.525627 -0.325648 -2.600483 -0.697275 0.000000 0.000000 0.000000 0.353139 -1.581933 -1.970429 0.149125 0.488677 -0.679021 0.165301 -3.402209 -0.034979 0.000000 0.000000 0.000000 0.812651 -3.886532 3.358033 1.586401 8.354930 -1.682290 0.984441 -4.383827 2.015258 0.000000 0.000000 0.000000 
-3352.351562 1000.504150 1121.701050 -0.998664 0.858431 -0.798841 1.532121 4.757450 1.416913 1.573368 -0.813531 -0.104160 1.575175 0.654526 0.289696 0.576664 -6.923338 -1.001122 0.000000 0.000000 0.000000 -1.993903 6.209169 -4.554559 -0.313252 6.952057 1.120706 0.463789 -3.374129 2.257311 0.000000 0.000000 0.000000 -2.942560 4.262220 -0.707724 1.023281 5.328400 1.902006 -0.542714 -3.739897 -1.380300 0.000000 0.000000 0.000000 0.319348 -1.350545 -2.202407 0.105900 0.793616 -0.851540 0.116874 -3.621042 -0.064803 0.000000 0.000000 0.000000 1.042073 -4.314882 3.181793 1.882283 9.669784 -2.083901 1.193665 -5.065435 2.354450 0.000000 0.000000 0.000000 
-3340.526855 1001.451172 1120.771973 -0.686736 1.113005 -0.578761 1.553936 4.674074 1.180190 1.586662 -0.838078 -0.030149 1.598188 0.689969 0.237806 0.653738 -6.594872 -1.201476 0.000000 0.000000 0.000000 -1.029827 6.707827 -4.872185 -0.405307 7.792354 1.614613 0.423096 -3.843908 1.908420 0.000000 0.000000 0.000000 -2.610574 4.443383 -0.793245 1.127293 5.692974 3.196308 -0.696300 -4.479396 -1.877680 0.000000 0.000000 0.000000 0.229458 -1.299948 -2.420822 -0.011129 1.554488 -0.978083 0.017104 -3.975934 -0.123106 0.000000 0.000000 0.000000 1.321036 -4.546140 2.958757 2.202418 10.676500 -2.368619 1.467491 -5.558062 2.657411 0.000000 0.000000 0.000000 
-3328.233643 1002.071289 1120.057007 -0.137077 1.362960 -0.405986 1.414420 4.621327 1.076880 1.445113 -0.877220 -0.026809 1.460170 0.743625 0.215786 0.716012 -6.266504 -1.357807 0.000000 0.000000 0.000000 -0.228989 7.068001 -5.068981 -0.458112 8.398942 1.899428 0.392708 -4.138815 1.663227 0.000000 0.000000 0.000000 -2.070843 4.454615 -0.935163 1.130534 5.811161 4.251600 -0.694371 -4.184638 -1.958482 0.000000 0.000000 0.000000 0.013163 -1.440381 -2.568263 -0.269037 2.813822 -1.035762 -0.189923 -4.637777 -0.241475 0.000000 0.000000 0.000000 1.663071 -4.432604 2.691764 2.541303 11.050395 -2.431563 1.817085 -5.779099 2.900518 0.000000 0.000000 0.000000 
-3315.440186 1002.408997 1119.473022 0.601351 1.604584 -0.235096 1.144418 4.599716 1.011591 1.172574 -0.940822 -0.065019 1.187900 0.828357 0.214866 0.760778 -5.894316 -1.466158 0.000000 0.000000 0.000000 0.490766 7.312197 -5.181833 -0.491097 8.830099 2.057203 0.366478 -4.346909 1.462976 0.000000 0.000000 0.000000 -1.282512 4.346231 -1.067461 1.065480 5.729017 5.115576 -0.577420 -3.159100 -1.731815 0.000000 0.000000 0.000000 -0.309176 -1.740364 -2.689979 -0.647505 4.489955 -1.046527 -0.493808 -5.444117 -0.409382 0.000000 0.000000 0.000000 2.100588 -4.039891 2.365137 2.938035 10.916713 -2.343377 2.259732 -5.774332 3.108373 0.000000 0.000000 0.000000 
-3302.580322 1002.647522 1118.977051 1.292682 1.791505 -0.124838 0.870753 4.669477 1.081676 0.902307 -1.014848 -0.164453 0.912911 0.907783 0.225268 0.807520 -5.485127 -1.579134 0.000000 0.000000 0.000000 0.960030 7.536273 -5.205401 -0.517059 9.135377 1.988858 0.368022 -4.752050 1.418586 0.000000 0.000000 0.000000 -0.684540 4.176306 -1.209521 1.012764 5.586276 5.767095 -0.382019 -1.933599 -1.199097 0.000000 0.000000 0.000000 -0.542505 -2.412503 -2.853668 -0.988087 6.966149 -0.887501 -0.721231 -6.383853 -0.545537 0.000000 0.000000 0.000000 2.404256 -3.494498 2.156430 3.200253 10.656208 -2.235098 2.566103 -5.698064 3.224707 0.000000 0.000000 0.000000 
-3289.996582 1002.944702 1118.452026 1.742441 1.893036 -0.074892 0.692812 4.838715 1.257235 0.721878 -1.062185 -0.274840 0.723788 0.940767 0.243814 0.870448 -5.006843 -1.736200 0.000000 0.000000 0.000000 1.017835 7.810933 -5.135500 -0.542442 9.334571 1.561626 0.422140 -5.601502 1.670114 0.000000 0.000000 0.000000 -0.643919 3.990735 -1.369135 1.025696 5.479918 6.120543 -0.104623 -0.781963 -0.235801 0.000000 0.000000 0.000000 -0.538530 -3.661553 -3.191560 -1.185461 10.619711 -0.399950 -0.740749 -7.411125 -0.587825 0.000000 0.000000 0.000000 2.396807 -2.863022 2.094938 3.166114 10.501265 -2.135762 2.565524 -5.650497 3.202158 0.000000 0.000000 0.000000 
